# xmcd
#
# Track frame offsets: 
#        150
#        10141
#        26703
#        39567
#        52928
#        63159
#        76048
#        90083
#        97828
#        115618
#        128446
#        145558
#        157667
#
# Disc length: 2257 seconds
#
# Revision: 1
# Processed by: cddbd v1.5.2PL0 Copyright (c) Steve Scherf et al.
# Submitted via: ExactAudioCopyFreeDBPlugin 1.0
#
DISCID=7b08cf0d
DTITLE=Audie Blaylock and Redline - Cryin' Heart Blues
DYEAR=2010
DGENRE=Bluegrass
TTITLE0=Cryin' Heart Blues
TTITLE1=All I Can Do Is Pretend
TTITLE2=Matches
TTITLE3=Can' Keep On Runnin'
TTITLE4=You Can Keep Your 9 Pound Hammer
TTITLE5=Stay Away From Me
TTITLE6=Drink Up and Go Home
TTITLE7=Troubles 'Round My Door
TTITLE8=Pray the Clouds Away
TTITLE9=Let's Part the Best of Friends
TTITLE10=Talk To Your Heart
TTITLE11=He Is Near
TTITLE12=Rummie's Run
EXTD=
EXTT0=
EXTT1=
EXTT2=
EXTT3=
EXTT4=
EXTT5=
EXTT6=
EXTT7=
EXTT8=
EXTT9=
EXTT10=
EXTT11=
EXTT12=
PLAYORDER=
